<svg id="Skoda_Wordmark" data-name="Skoda Wordmark" xmlns="http://www.w3.org/2000/svg" viewBox="0 0 1000 140"><defs><style>.cls-1{fill:#0e3a2f;}</style></defs><path class="cls-1" d="M0,140l18.5256-29.6408H125.974c6.0869,0,10.0567-3.97,10.0567-10.0567V83.1H43.6674C16.1437,83.1,3.97,70.9263,3.97,43.9319V32.2873C3.97,12.1739,15.8791,0,34.6693,0h2.1172V43.4026c0,6.087,3.97,10.0568,10.0568,10.0568h89.4521c20.3781,0,32.5521,12.1739,32.5521,32.0226v15.35c0,26.2-12.968,39.1682-39.6977,39.1682Zm643.8787-30.17h83.1c13.7619,0,22.4954-8.4688,22.4954-21.7014V51.8715c0-13.2326-8.7335-21.7014-22.4954-21.7014h-83.1ZM610.5326,140V0H727.7731c34.9339,0,55.0474,20.1134,55.0474,53.4594V86.5406c0,33.346-20.1135,53.4594-55.0474,53.4594ZM448.9337,109.83h70.1326c12.7032,0,20.9074-7.9395,20.9074-20.3781V50.5482c0-12.4386-8.2042-20.3781-20.9074-20.3781H448.9337c-12.7032,0-20.9074,7.9395-20.9074,20.3781V89.4518C428.0263,101.89,436.2305,109.83,448.9337,109.83ZM519.86,140H448.14c-33.8754,0-53.46-19.5841-53.46-52.1361V52.1361C394.68,19.5841,414.2644,0,448.14,0h71.72c33.8754,0,53.46,19.5841,53.46,52.1361V87.8639C573.32,120.4159,553.7356,140,519.86,140Zm276.623,0L875.0846,0h46.314L1000,140H961.89L948.393,115.9168H881.4363L863.44,87.3346,833.7991,140Zm67.7507-54.2533h67.2214L897.8446,26.2ZM69.6033,29.1115,50.5484,0H165.6716L147.1461,29.1115ZM205.5412,140V0h33.3461V54.518H283.084L340.5133,0H384.71L311.6664,69.603,386.0334,140H339.19L281.7608,84.6881H238.8873V140Z"/></svg>