<?xml version="1.0" encoding="UTF-8"?><svg id="a" xmlns="http://www.w3.org/2000/svg" width="1000" height="140" viewBox="0 0 1000 140"><defs><style>.b{fill:#78faae;}</style></defs><path class="b" d="M0,140l18.5256-29.6408H125.974c6.087,0,10.0567-3.9698,10.0567-10.0567v-17.2023H43.6674c-27.5237,0-39.6977-12.1739-39.6977-39.1682v-11.6446C3.9698,12.1739,15.8791,0,34.6693,0h2.1172V43.4026c0,6.087,3.9698,10.0567,10.0567,10.0567h89.4521c20.3781,0,32.5521,12.1739,32.5521,32.0227v15.3497c0,26.2004-12.9679,39.1682-39.6977,39.1682H0Zm643.8787-30.1701h83.1005c13.7619,0,22.4954-8.4688,22.4954-21.7013V51.8715c0-13.2325-8.7335-21.7013-22.4954-21.7013h-83.1005V109.8299Zm-33.346,30.1701V0h117.2405c34.934,0,55.0474,20.1134,55.0474,53.4594v33.0813c0,33.3459-20.1135,53.4594-55.0474,53.4594h-117.2405Zm-161.5989-30.1701h70.1326c12.7033,0,20.9074-7.9395,20.9074-20.3781V50.5482c0-12.4386-8.2042-20.3781-20.9074-20.3781h-70.1326c-12.7033,0-20.9074,7.9395-20.9074,20.3781v38.9036c0,12.4386,8.2042,20.3781,20.9074,20.3781Zm70.9265,30.1701h-71.7205c-33.8754,0-53.4595-19.5841-53.4595-52.1361V52.1361c0-32.552,19.5842-52.1361,53.4595-52.1361h71.7205c33.8754,0,53.4595,19.5841,53.4595,52.1361v35.7278c0,32.552-19.5842,52.1361-53.4595,52.1361Zm276.623,0L875.0846,0h46.314l78.6014,140h-38.1098l-13.4972-24.0832h-66.9567l-17.9963-28.5822-29.6409,52.6654h-37.3158Zm67.7507-54.2533h67.2214l-33.6107-59.5463-33.6107,59.5463ZM69.6033,29.1115L50.5484,0h115.1233l-18.5256,29.1115H69.6033Zm135.938,110.8885V0h33.346V54.518h44.1967L340.5133,0h44.1967l-73.0437,69.603,74.367,70.397h-46.8433l-57.4293-55.3119h-42.8735v55.3119h-33.346Z"/></svg>